<mxfile host="Electron" modified="2024-07-25T09:59:31.641Z" agent="Mozilla/5.0 (Windows NT 10.0; Win64; x64) AppleWebKit/537.36 (KHTML, like Gecko) draw.io/24.2.5 Chrome/120.0.6099.109 Electron/28.1.0 Safari/537.36" etag="GbSt7AkHWOWRSqtFzY5O" version="24.2.5" type="device">
  <diagram name="Page-1" id="BPM2w49c-HHP_4gp5e4z">
    <mxGraphModel dx="901" dy="361" grid="1" gridSize="10" guides="1" tooltips="1" connect="1" arrows="1" fold="1" page="1" pageScale="1" pageWidth="827" pageHeight="1169" math="0" shadow="0">
      <root>
        <mxCell id="0" />
        <mxCell id="1" parent="0" />
        <mxCell id="DYwsV5AfXyrjf6upFfKe-2" value="" style="endArrow=none;dashed=1;html=1;rounded=0;fontFamily=Garamond;fontSize=13;" parent="1" edge="1">
          <mxGeometry width="50" height="50" relative="1" as="geometry">
            <mxPoint x="140" y="360" as="sourcePoint" />
            <mxPoint x="520" y="360" as="targetPoint" />
          </mxGeometry>
        </mxCell>
        <mxCell id="DYwsV5AfXyrjf6upFfKe-17" style="edgeStyle=orthogonalEdgeStyle;rounded=0;orthogonalLoop=1;jettySize=auto;html=1;exitX=0.5;exitY=1;exitDx=0;exitDy=0;entryX=0.5;entryY=0;entryDx=0;entryDy=0;endArrow=blockThin;endFill=1;endSize=8;startSize=8;fontFamily=Garamond;fontSize=13;fillColor=#f8cecc;strokeColor=#b85450;" parent="1" source="DYwsV5AfXyrjf6upFfKe-1" target="DYwsV5AfXyrjf6upFfKe-6" edge="1">
          <mxGeometry relative="1" as="geometry" />
        </mxCell>
        <mxCell id="DYwsV5AfXyrjf6upFfKe-27" value="Compensator&lt;br style=&quot;font-size: 13px;&quot;&gt;design in CT" style="edgeLabel;html=1;align=center;verticalAlign=middle;resizable=0;points=[];horizontal=0;fontFamily=Garamond;fontSize=13;" parent="DYwsV5AfXyrjf6upFfKe-17" vertex="1" connectable="0">
          <mxGeometry x="-0.3875" relative="1" as="geometry">
            <mxPoint x="-20" y="15" as="offset" />
          </mxGeometry>
        </mxCell>
        <mxCell id="DYwsV5AfXyrjf6upFfKe-1" value="&lt;font style=&quot;font-size: 16px;&quot;&gt;G&lt;sub style=&quot;font-size: 16px;&quot;&gt;P&lt;/sub&gt;(s)&lt;/font&gt;" style="rounded=0;whiteSpace=wrap;html=1;fontFamily=Garamond;fontSize=16;" parent="1" vertex="1">
          <mxGeometry x="160" y="280" width="80" height="40" as="geometry" />
        </mxCell>
        <mxCell id="DYwsV5AfXyrjf6upFfKe-4" value="&lt;font style=&quot;font-size: 16px;&quot;&gt;G&lt;sub style=&quot;font-size: 16px;&quot;&gt;P&lt;/sub&gt;(z)&lt;/font&gt;" style="rounded=0;whiteSpace=wrap;html=1;fontFamily=Garamond;fontSize=16;fillColor=#FFFFFF;strokeColor=#6c8ebf;" parent="1" vertex="1">
          <mxGeometry x="361" y="280" width="80" height="40" as="geometry" />
        </mxCell>
        <mxCell id="DYwsV5AfXyrjf6upFfKe-6" value="&lt;font style=&quot;font-size: 16px;&quot;&gt;G&lt;sub style=&quot;font-size: 16px;&quot;&gt;C&lt;/sub&gt;(s)&lt;/font&gt;" style="rounded=0;whiteSpace=wrap;html=1;fontFamily=Garamond;fontSize=16;fillColor=#FFFFFF;strokeColor=#b85450;" parent="1" vertex="1">
          <mxGeometry x="160" y="400" width="80" height="40" as="geometry" />
        </mxCell>
        <mxCell id="DYwsV5AfXyrjf6upFfKe-7" value="&lt;font style=&quot;font-size: 16px;&quot;&gt;G&lt;sub style=&quot;font-size: 16px;&quot;&gt;C&lt;/sub&gt;(z)&lt;/font&gt;" style="rounded=0;whiteSpace=wrap;html=1;fontFamily=Garamond;fontSize=16;" parent="1" vertex="1">
          <mxGeometry x="361" y="400" width="80" height="40" as="geometry" />
        </mxCell>
        <mxCell id="DYwsV5AfXyrjf6upFfKe-8" value="Plant" style="text;html=1;align=right;verticalAlign=middle;resizable=0;points=[];autosize=1;strokeColor=none;fillColor=none;fontFamily=Garamond;fontSize=16;" parent="1" vertex="1">
          <mxGeometry x="461" y="330" width="60" height="30" as="geometry" />
        </mxCell>
        <mxCell id="DYwsV5AfXyrjf6upFfKe-9" value="Compensator" style="text;html=1;align=right;verticalAlign=middle;resizable=0;points=[];autosize=1;strokeColor=none;fillColor=none;fontFamily=Garamond;fontSize=16;" parent="1" vertex="1">
          <mxGeometry x="411" y="360" width="110" height="30" as="geometry" />
        </mxCell>
        <mxCell id="DYwsV5AfXyrjf6upFfKe-10" value="CT" style="text;html=1;align=center;verticalAlign=middle;resizable=0;points=[];autosize=1;strokeColor=none;fillColor=none;fontFamily=Garamond;fontSize=16;" parent="1" vertex="1">
          <mxGeometry x="260" y="210" width="40" height="30" as="geometry" />
        </mxCell>
        <mxCell id="DYwsV5AfXyrjf6upFfKe-11" value="DT" style="text;html=1;align=center;verticalAlign=middle;resizable=0;points=[];autosize=1;strokeColor=none;fillColor=none;fontFamily=Garamond;fontSize=16;" parent="1" vertex="1">
          <mxGeometry x="295" y="210" width="50" height="30" as="geometry" />
        </mxCell>
        <mxCell id="DYwsV5AfXyrjf6upFfKe-16" value="" style="endArrow=none;dashed=1;html=1;rounded=0;fontFamily=Garamond;fontSize=13;" parent="1" edge="1">
          <mxGeometry width="50" height="50" relative="1" as="geometry">
            <mxPoint x="300.67" y="480" as="sourcePoint" />
            <mxPoint x="300.67" y="220" as="targetPoint" />
          </mxGeometry>
        </mxCell>
        <mxCell id="DYwsV5AfXyrjf6upFfKe-20" style="edgeStyle=orthogonalEdgeStyle;rounded=0;orthogonalLoop=1;jettySize=auto;html=1;exitX=1;exitY=0.5;exitDx=0;exitDy=0;entryX=0;entryY=0.5;entryDx=0;entryDy=0;endArrow=blockThin;endFill=1;endSize=8;startSize=8;fontFamily=Garamond;fontSize=13;fillColor=#f8cecc;strokeColor=#b85450;" parent="1" source="DYwsV5AfXyrjf6upFfKe-6" target="DYwsV5AfXyrjf6upFfKe-7" edge="1">
          <mxGeometry relative="1" as="geometry">
            <mxPoint x="220" y="340" as="sourcePoint" />
            <mxPoint x="220" y="420" as="targetPoint" />
          </mxGeometry>
        </mxCell>
        <mxCell id="DYwsV5AfXyrjf6upFfKe-23" value="Discretization of&lt;br style=&quot;font-size: 13px;&quot;&gt;&lt;span style=&quot;font-size: 13px;&quot;&gt;compensator (Tustin)&lt;/span&gt;" style="edgeLabel;html=1;align=center;verticalAlign=middle;resizable=0;points=[];labelBackgroundColor=default;fontFamily=Garamond;fontSize=13;" parent="DYwsV5AfXyrjf6upFfKe-20" vertex="1" connectable="0">
          <mxGeometry x="-0.0125" y="-1" relative="1" as="geometry">
            <mxPoint y="19" as="offset" />
          </mxGeometry>
        </mxCell>
        <mxCell id="DYwsV5AfXyrjf6upFfKe-21" style="edgeStyle=orthogonalEdgeStyle;rounded=0;orthogonalLoop=1;jettySize=auto;html=1;exitX=0.5;exitY=1;exitDx=0;exitDy=0;entryX=0.5;entryY=0;entryDx=0;entryDy=0;endArrow=blockThin;endFill=1;endSize=8;startSize=8;fontFamily=Garamond;fontSize=13;fillColor=#dae8fc;strokeColor=#6c8ebf;" parent="1" source="DYwsV5AfXyrjf6upFfKe-4" target="DYwsV5AfXyrjf6upFfKe-7" edge="1">
          <mxGeometry relative="1" as="geometry">
            <mxPoint x="191" y="350" as="sourcePoint" />
            <mxPoint x="191" y="430" as="targetPoint" />
          </mxGeometry>
        </mxCell>
        <mxCell id="DYwsV5AfXyrjf6upFfKe-28" value="Compensator&lt;br style=&quot;font-size: 13px;&quot;&gt;&lt;span style=&quot;font-size: 13px;&quot;&gt;design in DT&lt;/span&gt;" style="edgeLabel;html=1;align=center;verticalAlign=middle;resizable=0;points=[];horizontal=0;labelBackgroundColor=#FFFFFF;fontFamily=Garamond;fontSize=13;" parent="DYwsV5AfXyrjf6upFfKe-21" vertex="1" connectable="0">
          <mxGeometry x="-0.275" y="-1" relative="1" as="geometry">
            <mxPoint x="-19" y="11" as="offset" />
          </mxGeometry>
        </mxCell>
        <mxCell id="CWiFNYIifNQwhNsxP6d6-1" value="&lt;font color=&quot;#6c8ebf&quot;&gt;1. DT&lt;/font&gt;&lt;br&gt;&lt;div style=&quot;&quot;&gt;&lt;span style=&quot;background-color: initial;&quot;&gt;&lt;font color=&quot;#cc0000&quot;&gt;2. Emulation&lt;/font&gt;&lt;/span&gt;&lt;/div&gt;" style="text;html=1;align=left;verticalAlign=middle;resizable=0;points=[];autosize=1;strokeColor=none;fillColor=none;fontFamily=Garamond;fontSize=16;" parent="1" vertex="1">
          <mxGeometry x="421" y="210" width="100" height="50" as="geometry" />
        </mxCell>
        <mxCell id="DYwsV5AfXyrjf6upFfKe-19" style="edgeStyle=orthogonalEdgeStyle;rounded=0;orthogonalLoop=1;jettySize=auto;html=1;exitX=1;exitY=0.5;exitDx=0;exitDy=0;entryX=0;entryY=0.5;entryDx=0;entryDy=0;endArrow=blockThin;endFill=1;endSize=8;startSize=8;fontFamily=Garamond;fontSize=13;fillColor=#dae8fc;strokeColor=#6c8ebf;" parent="1" source="DYwsV5AfXyrjf6upFfKe-1" target="DYwsV5AfXyrjf6upFfKe-4" edge="1">
          <mxGeometry relative="1" as="geometry">
            <mxPoint x="210" y="330" as="sourcePoint" />
            <mxPoint x="210" y="410" as="targetPoint" />
          </mxGeometry>
        </mxCell>
        <mxCell id="DYwsV5AfXyrjf6upFfKe-24" value="Discretization&lt;br style=&quot;font-size: 13px;&quot;&gt;&lt;span style=&quot;font-size: 13px;&quot;&gt;of plant&amp;nbsp;&lt;/span&gt;&lt;div&gt;&lt;span style=&quot;font-size: 13px;&quot;&gt;(Hold a. Sample)&lt;/span&gt;&lt;/div&gt;" style="edgeLabel;html=1;align=center;verticalAlign=middle;resizable=0;points=[];labelBackgroundColor=#FFFFFF;fontFamily=Garamond;fontSize=13;" parent="DYwsV5AfXyrjf6upFfKe-19" vertex="1" connectable="0">
          <mxGeometry x="-0.1" y="1" relative="1" as="geometry">
            <mxPoint x="6" y="-29" as="offset" />
          </mxGeometry>
        </mxCell>
      </root>
    </mxGraphModel>
  </diagram>
</mxfile>
